<svg width="458" height="356" viewBox="0 0 458 356" fill="none" xmlns="http://www.w3.org/2000/svg">


<g class="animate1">
<path d="M23.1686 20C23.1686 8.9543 32.1229 0 43.1686 0H222C233.046 0 242 8.95431 242 20V25C242 36.0457 233.046 45 222 45H43.1686C32.1229 45 23.1686 36.0457 23.1686 25V20Z" fill="#9231B4"/>
<text fill="white" xml:space="preserve" style="white-space: pre"  letter-spacing="0em"><tspan x="35.2346" y="28.3182">Salut, c&#x2019;est Kenneth</tspan></text>
</g>

<g class="animate1">
<path d="M22.8125 78C22.8125 66.9543 31.7668 58 42.8125 58H210C221.046 58 230 66.9543 230 78V83C230 94.0457 221.046 103 210 103H42.8125C31.7668 103 22.8125 94.0457 22.8125 83V78Z" fill="#9231B4"/>
<text fill="white" xml:space="preserve" style="white-space: pre"  letter-spacing="0em"><tspan x="37.1328" y="86.3182">Hi, It&#x2019;s Kenneth</tspan></text>
</g>

<g class="animate1">
<path d="M21 138C21 126.954 29.9543 118 41 118H394C405.046 118 414 126.954 414 138V143C414 154.046 405.046 163 394 163H41C29.9543 163 21 154.046 21 143V138Z" fill="#9231B4"/>
<text fill="white" xml:space="preserve" style="white-space: pre"  letter-spacing="0em"><tspan x="37" y="145.318">Vous voulez en savoir un peu plus sur moi ??</tspan></text>
</g>

<g class="animate1">
<path d="M22 197C22 185.954 30.9543 177 42 177H388C399.046 177 408 185.954 408 197V217C408 228.046 399.046 237 388 237H42C30.9543 237 22 228.046 22 217V197Z" fill="#9231B4"/>
<text fill="white" xml:space="preserve" style="white-space: pre"  letter-spacing="0em"><tspan x="34" y="202.318">J&#x2019;ai une grande passion pour la musique,&#10;</tspan><tspan x="34" y="221.318">les nouvelles technologies et les sciences.&#10;</tspan></text>
</g>

<g class="animate1">
<path d="M22 271C22 259.954 30.9543 251 42 251H343C354.046 251 363 259.954 363 271V276C363 287.046 354.046 296 343 296H42C30.9543 296 22 287.046 22 276V271Z" fill="#9231B4"/>
<text fill="white" xml:space="preserve" style="white-space: pre"  letter-spacing="0em"><tspan x="29" y="280.318">Je vous souhaite un agr&#xe9;able dimanche.</tspan></text>
</g>

<g class="animate1">
<path d="M23 331C23 319.954 31.9543 311 43 311H324C335.046 311 344 319.954 344 331V336C344 347.046 335.046 356 324 356H43C31.9543 356 23 347.046 23 336V331Z" fill="#9231B4"/>
<text fill="white" xml:space="preserve" style="white-space: pre"  letter-spacing="0em"><tspan x="33" y="339.318">Et merci pour cette petite visite.</tspan></text>
</g>


<style>
    .animate1 {
       animation-name: animate;
       animation-fill-mode: both;
       animation-duration: 0.6s;
       font-weight: 450;
       font-size: 18px;
       font-family: -apple-system, BlinkMacSystemFont, 'Segoe UI', Roboto, Oxygen, Ubuntu, Cantarell, 'Open Sans', 'Helvetica Neue', sans-serif;
   }
   @keyframes animate {
       0% {
           opacity: 0;
           transform: translateY(50px);
       }
       100% {
           opacity: 1;
           transform: translateY(0px);
       }
   }

   .animate1:nth-child(2) {
       animation-delay: 2s;
   }
   .animate1:nth-child(3) {
       animation-delay: 4s;
   }
   .animate1:nth-child(4) {
       animation-delay: 6s;
   }
   .animate1:nth-child(5) {
       animation-delay: 9s;
   }
   .animate1:nth-child(6) {
       animation-delay: 11s;
   }
</style>





</svg>
